<mxfile host="app.diagrams.net" modified="2023-08-11T17:49:34.663Z" agent="Mozilla/5.0 (Windows NT 10.0; Win64; x64) AppleWebKit/537.36 (KHTML, like Gecko) Chrome/115.0.0.0 Safari/537.36" etag="iq5Nxw1tgjtoKeddW4Dc" version="21.6.8" type="github">
  <diagram name="Page-1" id="4luIDfP-IuOz0tOmRFPr">
    <mxGraphModel dx="1034" dy="424" grid="1" gridSize="10" guides="1" tooltips="1" connect="1" arrows="1" fold="1" page="1" pageScale="1" pageWidth="850" pageHeight="1100" math="0" shadow="0">
      <root>
        <mxCell id="0" />
        <mxCell id="1" parent="0" />
        <mxCell id="w1-ZOo0Xc08flJU9jhSV-10" value="" style="ellipse;html=1;shape=startState;fillColor=#000000;strokeColor=#ff0000;" vertex="1" parent="1">
          <mxGeometry x="370" y="10" width="30" height="30" as="geometry" />
        </mxCell>
        <mxCell id="w1-ZOo0Xc08flJU9jhSV-11" value="" style="edgeStyle=orthogonalEdgeStyle;html=1;verticalAlign=bottom;endArrow=open;endSize=8;strokeColor=#ff0000;rounded=0;" edge="1" source="w1-ZOo0Xc08flJU9jhSV-10" parent="1">
          <mxGeometry relative="1" as="geometry">
            <mxPoint x="385" y="80" as="targetPoint" />
          </mxGeometry>
        </mxCell>
        <mxCell id="w1-ZOo0Xc08flJU9jhSV-13" value="Login with E-Mail" style="rounded=1;whiteSpace=wrap;html=1;" vertex="1" parent="1">
          <mxGeometry x="320" y="80" width="130" height="30" as="geometry" />
        </mxCell>
        <mxCell id="w1-ZOo0Xc08flJU9jhSV-14" value="" style="rhombus;whiteSpace=wrap;html=1;" vertex="1" parent="1">
          <mxGeometry x="357.5" y="140" width="55" height="50" as="geometry" />
        </mxCell>
        <mxCell id="w1-ZOo0Xc08flJU9jhSV-15" value="&lt;font style=&quot;font-size: 9px;&quot;&gt;SUCCESSFULL?&lt;br&gt;YES&lt;br&gt;&lt;/font&gt;" style="text;html=1;align=center;verticalAlign=middle;resizable=0;points=[];autosize=1;strokeColor=none;fillColor=none;" vertex="1" parent="1">
          <mxGeometry x="380" y="180" width="90" height="40" as="geometry" />
        </mxCell>
        <mxCell id="w1-ZOo0Xc08flJU9jhSV-17" value="" style="endArrow=classic;html=1;rounded=0;exitX=0.5;exitY=1;exitDx=0;exitDy=0;" edge="1" parent="1" source="w1-ZOo0Xc08flJU9jhSV-14">
          <mxGeometry width="50" height="50" relative="1" as="geometry">
            <mxPoint x="360" y="250" as="sourcePoint" />
            <mxPoint x="385" y="220" as="targetPoint" />
          </mxGeometry>
        </mxCell>
        <mxCell id="w1-ZOo0Xc08flJU9jhSV-18" value="SCAN AR MARKER" style="rounded=1;whiteSpace=wrap;html=1;" vertex="1" parent="1">
          <mxGeometry x="330" y="220" width="120" height="30" as="geometry" />
        </mxCell>
        <mxCell id="w1-ZOo0Xc08flJU9jhSV-19" value="" style="endArrow=classic;html=1;rounded=0;exitX=0.5;exitY=1;exitDx=0;exitDy=0;entryX=0.5;entryY=0;entryDx=0;entryDy=0;" edge="1" parent="1" source="w1-ZOo0Xc08flJU9jhSV-13" target="w1-ZOo0Xc08flJU9jhSV-14">
          <mxGeometry width="50" height="50" relative="1" as="geometry">
            <mxPoint x="360" y="250" as="sourcePoint" />
            <mxPoint x="410" y="200" as="targetPoint" />
          </mxGeometry>
        </mxCell>
        <mxCell id="w1-ZOo0Xc08flJU9jhSV-24" value="TRY AGAIN?" style="text;html=1;align=center;verticalAlign=middle;resizable=0;points=[];autosize=1;strokeColor=none;fillColor=none;" vertex="1" parent="1">
          <mxGeometry x="165" y="185" width="90" height="30" as="geometry" />
        </mxCell>
        <mxCell id="w1-ZOo0Xc08flJU9jhSV-33" value="" style="edgeStyle=orthogonalEdgeStyle;rounded=0;orthogonalLoop=1;jettySize=auto;html=1;" edge="1" parent="1" source="w1-ZOo0Xc08flJU9jhSV-26" target="w1-ZOo0Xc08flJU9jhSV-29">
          <mxGeometry relative="1" as="geometry" />
        </mxCell>
        <mxCell id="w1-ZOo0Xc08flJU9jhSV-26" value="VIEW OVERLOAD INFORMATION" style="rounded=1;whiteSpace=wrap;html=1;" vertex="1" parent="1">
          <mxGeometry x="330" y="280" width="120" height="30" as="geometry" />
        </mxCell>
        <mxCell id="w1-ZOo0Xc08flJU9jhSV-28" value="YES&lt;br&gt;SCAN ANOTHER MARKER" style="text;html=1;align=center;verticalAlign=middle;resizable=0;points=[];autosize=1;strokeColor=none;fillColor=none;" vertex="1" parent="1">
          <mxGeometry x="390" y="360" width="170" height="40" as="geometry" />
        </mxCell>
        <mxCell id="w1-ZOo0Xc08flJU9jhSV-31" value="" style="edgeStyle=orthogonalEdgeStyle;rounded=0;orthogonalLoop=1;jettySize=auto;html=1;" edge="1" parent="1" source="w1-ZOo0Xc08flJU9jhSV-29">
          <mxGeometry relative="1" as="geometry">
            <mxPoint x="390" y="430" as="targetPoint" />
          </mxGeometry>
        </mxCell>
        <mxCell id="w1-ZOo0Xc08flJU9jhSV-29" value="" style="rhombus;whiteSpace=wrap;html=1;" vertex="1" parent="1">
          <mxGeometry x="362.5" y="330" width="55" height="50" as="geometry" />
        </mxCell>
        <mxCell id="w1-ZOo0Xc08flJU9jhSV-32" value="" style="ellipse;html=1;shape=endState;fillColor=#000000;strokeColor=#ff0000;" vertex="1" parent="1">
          <mxGeometry x="375" y="430" width="30" height="30" as="geometry" />
        </mxCell>
        <mxCell id="w1-ZOo0Xc08flJU9jhSV-36" value="" style="endArrow=none;html=1;rounded=0;entryX=1;entryY=0.5;entryDx=0;entryDy=0;exitX=1;exitY=0.5;exitDx=0;exitDy=0;" edge="1" parent="1" source="w1-ZOo0Xc08flJU9jhSV-29" target="w1-ZOo0Xc08flJU9jhSV-13">
          <mxGeometry width="50" height="50" relative="1" as="geometry">
            <mxPoint x="420" y="350" as="sourcePoint" />
            <mxPoint x="410" y="200" as="targetPoint" />
            <Array as="points">
              <mxPoint x="480" y="355" />
              <mxPoint x="480" y="95" />
            </Array>
          </mxGeometry>
        </mxCell>
        <mxCell id="w1-ZOo0Xc08flJU9jhSV-37" value="NO&lt;br&gt;" style="text;html=1;align=center;verticalAlign=middle;resizable=0;points=[];autosize=1;strokeColor=none;fillColor=none;" vertex="1" parent="1">
          <mxGeometry x="480" y="210" width="40" height="30" as="geometry" />
        </mxCell>
        <mxCell id="w1-ZOo0Xc08flJU9jhSV-38" value="" style="rhombus;whiteSpace=wrap;html=1;" vertex="1" parent="1">
          <mxGeometry x="225" y="140" width="55" height="50" as="geometry" />
        </mxCell>
        <mxCell id="w1-ZOo0Xc08flJU9jhSV-39" value="" style="endArrow=classic;html=1;rounded=0;exitX=0.5;exitY=0;exitDx=0;exitDy=0;" edge="1" parent="1" source="w1-ZOo0Xc08flJU9jhSV-38">
          <mxGeometry width="50" height="50" relative="1" as="geometry">
            <mxPoint x="360" y="250" as="sourcePoint" />
            <mxPoint x="390" y="50" as="targetPoint" />
            <Array as="points">
              <mxPoint x="253" y="50" />
            </Array>
          </mxGeometry>
        </mxCell>
        <mxCell id="w1-ZOo0Xc08flJU9jhSV-40" value="YES" style="text;html=1;align=center;verticalAlign=middle;resizable=0;points=[];autosize=1;strokeColor=none;fillColor=none;" vertex="1" parent="1">
          <mxGeometry x="210" y="50" width="50" height="30" as="geometry" />
        </mxCell>
        <mxCell id="w1-ZOo0Xc08flJU9jhSV-41" value="" style="endArrow=classic;html=1;rounded=0;exitX=0.5;exitY=1;exitDx=0;exitDy=0;entryX=0;entryY=0.5;entryDx=0;entryDy=0;" edge="1" parent="1" source="w1-ZOo0Xc08flJU9jhSV-38" target="w1-ZOo0Xc08flJU9jhSV-32">
          <mxGeometry width="50" height="50" relative="1" as="geometry">
            <mxPoint x="360" y="250" as="sourcePoint" />
            <mxPoint x="260" y="380" as="targetPoint" />
            <Array as="points">
              <mxPoint x="253" y="445" />
            </Array>
          </mxGeometry>
        </mxCell>
        <mxCell id="w1-ZOo0Xc08flJU9jhSV-43" value="NO" style="text;html=1;align=center;verticalAlign=middle;resizable=0;points=[];autosize=1;strokeColor=none;fillColor=none;" vertex="1" parent="1">
          <mxGeometry x="215" y="310" width="40" height="30" as="geometry" />
        </mxCell>
        <mxCell id="w1-ZOo0Xc08flJU9jhSV-44" value="" style="endArrow=classic;html=1;rounded=0;exitX=0.5;exitY=1;exitDx=0;exitDy=0;entryX=0.5;entryY=0;entryDx=0;entryDy=0;" edge="1" parent="1" source="w1-ZOo0Xc08flJU9jhSV-18" target="w1-ZOo0Xc08flJU9jhSV-26">
          <mxGeometry width="50" height="50" relative="1" as="geometry">
            <mxPoint x="360" y="350" as="sourcePoint" />
            <mxPoint x="410" y="300" as="targetPoint" />
          </mxGeometry>
        </mxCell>
      </root>
    </mxGraphModel>
  </diagram>
</mxfile>
